<svg width="37" height="37" viewBox="0 0 37 37" fill="none" xmlns="http://www.w3.org/2000/svg">
<path d="M34.6314 5.75089L29.8135 0.938226C29.2255 0.350212 28.4383 0.0200195 27.6059 0.0200195C26.7736 0.0200195 25.9864 0.345689 25.3983 0.938226L20.2096 6.11727C19.6215 6.70529 19.2913 7.49684 19.2913 8.32911C19.2913 9.1659 19.617 9.94841 20.2096 10.5409L24.2629 14.5982C23.3395 16.7494 22.0128 18.7039 20.3543 20.3563C18.6941 22.0253 16.7534 23.3416 14.6001 24.2733L10.5468 20.216C9.95873 19.628 9.17159 19.2978 8.33922 19.2978C7.92865 19.2963 7.52192 19.3767 7.14284 19.5344C6.76376 19.6921 6.41997 19.9238 6.13162 20.216L0.93833 25.3951C0.35024 25.9831 0.0200043 26.7747 0.0200043 27.6069C0.0200043 28.4437 0.345716 29.2262 0.93833 29.8188L5.75162 34.6314C6.7559 35.6356 8.14017 36.21 9.56063 36.21C9.85468 36.21 10.1397 36.1874 10.4292 36.1376C16.4187 35.1516 22.3629 31.9627 27.1626 27.1682C31.9578 22.3646 35.1426 16.4211 36.1378 10.4279C36.4228 8.72715 35.8528 6.97668 34.6314 5.75089ZM32.9304 9.88961C32.0483 15.2224 29.1802 20.5417 24.86 24.8613C20.5398 29.181 15.2244 32.0487 9.89087 32.9307C9.22135 33.0438 8.53374 32.8176 8.04517 32.3337L3.31783 27.6069L8.33017 22.5907L13.7496 28.0185L13.7904 28.0592L14.7675 27.6974C17.7302 26.6082 20.4207 24.8879 22.6524 22.6558C24.8841 20.4236 26.6036 17.7329 27.6919 14.7701L28.0538 13.7931L22.5891 8.33363L27.6014 3.31742L32.3288 8.04415C32.8173 8.53265 33.0435 9.22018 32.9304 9.88961Z" fill="#619DCF"/>
</svg>
