<svg width="59" height="35" viewBox="0 0 59 35" fill="none" xmlns="http://www.w3.org/2000/svg">
<mask id="mask0_1_120" style="mask-type:alpha" maskUnits="userSpaceOnUse" x="0" y="0" width="59" height="35">
<path d="M15.5342 7.1059C15.5342 6.6578 15.8927 6.29932 16.3408 6.29932H18.1929C18.641 6.29932 18.9995 6.6578 18.9995 7.1059V14.3651C18.9995 16.1575 20.2243 17.3226 22.0765 17.2927C23.6299 17.2629 24.8846 15.9484 24.8846 14.3651V7.1059C24.8846 6.6578 25.243 6.29932 25.6911 6.29932H27.5433C27.9914 6.29932 28.3499 6.6578 28.3499 7.1059V14.5444C28.3499 17.9798 25.8106 20.2502 21.9868 20.2502C18.0734 20.2502 15.5342 17.9798 15.5342 14.5444V7.1059Z" fill="black"/>
<path d="M32.3828 0.0260189C33.2491 0.145513 33.9362 0.832601 34.0557 1.69893C34.2648 3.1926 33.1894 4.26804 31.6957 4.05893C30.8294 3.93944 30.1423 3.25235 30.0228 2.38602C29.8137 0.892348 30.8891 -0.183095 32.3828 0.0260189ZM33.2192 6.29944C33.518 6.29944 33.757 6.53842 33.757 6.83716V19.4437C33.757 19.7425 33.518 19.9815 33.2192 19.9815H30.8294C30.5306 19.9815 30.2916 19.7425 30.2916 19.4437V6.83716C30.2916 6.53842 30.5306 6.29944 30.8294 6.29944H33.2192Z" fill="black"/>
<path d="M38.6861 0.205322C38.9251 0.205322 39.1342 0.414436 39.1342 0.653423V16.9046C39.1342 17.0539 39.2537 17.1734 39.403 17.1734H42.3904C42.6294 17.1734 42.8385 17.3825 42.8385 17.6215V19.5334C42.8385 19.7724 42.6294 19.9815 42.3904 19.9815H36.1468C35.878 19.9815 35.6987 19.7724 35.6987 19.5334V0.653423C35.6987 0.414436 35.9078 0.205322 36.1468 0.205322H38.6861Z" fill="black"/>
<path d="M56.0425 0.205322H58.3129C58.6415 0.205322 58.9104 0.474183 58.9104 0.802791V19.4139C58.9104 19.7425 58.6415 20.0114 58.3129 20.0114H56.162C55.8334 20.0114 55.5944 19.7724 55.5646 19.4438C55.5347 18.936 54.9671 18.697 54.5787 19.0256C53.6527 19.8322 52.4279 20.2803 50.9342 20.2803C47.2299 20.2803 44.3919 17.4722 44.3919 13.26C44.3919 8.95823 47.2299 6.09039 50.9342 6.09039C50.9342 6.09039 50.9342 6.09039 50.9641 6.09039H54.9073C55.236 6.09039 55.5048 5.82153 55.5048 5.49292V0.772917C55.4451 0.474183 55.7139 0.205322 56.0425 0.205322ZM55.4451 9.58558C55.4451 9.25697 55.1762 8.98811 54.8476 8.98811H51.6213C49.4106 9.01798 47.917 10.6909 47.917 13.1405C47.917 15.5901 49.4106 17.263 51.681 17.263C53.9215 17.263 55.4451 15.62 55.4451 13.1106V9.58558Z" fill="black"/>
<path d="M7.10988 6.32937H3.31596C3.13671 6.32937 2.98735 6.18001 2.98735 6.00077V0.53393C2.98735 0.354689 2.83798 0.205322 2.65874 0.205322H0.358488C0.209121 0.205322 0.0597534 0.324816 0.0597534 0.504056V0.53393V0.62355V13.3496C0.0597534 13.3795 0.0597534 13.3795 0.0597534 13.4094V20.0114V33.8727C0.0597534 34.022 0.179247 34.1714 0.358488 34.1714H2.62887C2.77823 34.1714 2.9276 34.0519 2.9276 33.8727V25.7172C2.9276 25.3587 3.22634 25.06 3.58482 25.06H5.58634C7.16963 25.06 8.24507 26.016 8.24507 27.5096V33.8727C8.24507 34.022 8.36456 34.1714 8.5438 34.1714H10.8142C10.9636 34.1714 11.1129 34.0519 11.1129 33.8727V27.0317C11.1129 24.3729 9.32051 22.6104 6.60203 22.6104H3.22634C3.07697 22.6104 2.9276 22.4909 2.9276 22.3117V18.7567C2.98735 18.5177 3.31596 18.4281 3.4952 18.6073C4.45115 19.623 5.79545 20.2205 7.55798 20.2205C11.2324 20.2205 14.1003 17.4124 14.1003 13.2003V13.0808C14.0106 9.31671 10.8739 6.32937 7.10988 6.32937ZM6.72153 17.2929C4.45115 17.2929 2.95748 15.6499 2.95748 13.1704V10.9598C2.95748 9.88431 3.8238 9.04785 4.86937 9.04785H6.72153C8.96203 9.04785 10.4856 10.7208 10.4856 13.2003C10.4856 15.62 8.96203 17.2929 6.72153 17.2929Z" fill="black"/>
<path d="M18.3722 22.6104C21.9868 22.6104 24.4365 24.9704 24.4365 28.4655C24.4365 31.9906 21.9868 34.3506 18.3722 34.3506C14.7276 34.3506 12.3079 31.9906 12.3079 28.4655C12.278 24.9704 14.7276 22.6104 18.3722 22.6104ZM18.3722 25.0301C16.4901 25.0301 15.2653 26.4043 15.2653 28.4655C15.2653 30.5268 16.52 31.901 18.3722 31.901C20.2243 31.901 21.4491 30.5268 21.4491 28.4655C21.4491 26.4043 20.2243 25.0301 18.3722 25.0301Z" fill="black"/>
<path d="M25.6314 23.4768C25.6314 23.1183 25.9301 22.8196 26.2886 22.8196H27.8122C28.1706 22.8196 28.4694 23.1183 28.4694 23.4768V29.4814C28.4694 30.975 29.4851 31.931 31.0086 31.9011C32.2932 31.8712 33.3388 30.7958 33.3388 29.4814V23.4768C33.3388 23.1183 33.6375 22.8196 33.996 22.8196H35.5195C35.878 22.8196 36.1767 23.1183 36.1767 23.4768V29.6307C36.1767 32.4687 34.0856 34.3507 30.8891 34.3507C27.6927 34.3507 25.6015 32.4687 25.6015 29.6307V23.4768H25.6314Z" fill="black"/>
<path d="M38.2679 31.662C38.3873 31.4529 38.6562 31.3633 38.8952 31.4828C39.8511 31.9607 40.8071 32.1101 41.763 32.1101C42.8086 32.1101 43.5256 31.662 43.5256 30.9749C43.5256 30.2878 42.719 29.8995 41.5838 29.6007L40.6278 29.3617C38.716 28.8539 37.4015 28.1071 37.4015 26.3445C37.4015 24.104 39.1641 22.6104 41.8527 22.6104C43.3463 22.6104 44.6309 22.8792 45.6765 23.4468C45.9154 23.5962 46.0051 23.8949 45.8557 24.1339L45.1686 25.2093C45.0491 25.4185 44.7803 25.4782 44.5711 25.3886C43.7646 25.0002 42.9281 24.8509 42.0618 24.8509C41.0461 24.8509 40.3291 25.2392 40.3291 25.8666C40.3291 26.5536 41.0461 26.8524 42.0319 27.1212L42.9878 27.3901C44.9296 27.8979 46.4532 28.7643 46.4532 30.7658C46.4532 32.9167 44.5711 34.3506 41.7332 34.3506C40.2096 34.3506 38.8056 33.9921 37.7899 33.2752C37.5808 33.1258 37.521 32.8271 37.6704 32.6179L38.2679 31.662Z" fill="black"/>
<path d="M58.9701 29.1525C58.9402 29.3617 58.7909 29.511 58.5818 29.511H51.2329C50.964 29.511 50.7848 29.75 50.8445 29.989C51.1433 31.3034 51.9797 32.11 53.4734 32.11C54.6385 32.11 55.5645 31.5723 56.2516 30.7657H58.283C58.5519 30.7657 58.761 31.0346 58.6714 31.3034C57.5661 34.4999 53.5033 34.3804 53.5033 34.3804C50.038 34.3804 47.7078 32.0801 47.7078 28.5849C47.7078 25.0001 49.9483 22.6401 53.3539 22.6401C56.7296 22.6401 59 24.9105 59 28.346C59 28.5849 59 28.8837 58.9701 29.1525ZM55.5347 27.5693C55.8035 27.5693 55.9828 27.3303 55.923 27.0913C55.6243 25.6574 54.7281 24.8508 53.3539 24.8508C51.9797 24.8508 51.1433 25.6574 50.8147 27.0614C50.7549 27.3004 50.964 27.5394 51.203 27.5394H55.5347V27.5693Z" fill="black"/>
</mask>
<g mask="url(#mask0_1_120)">
<path d="M15.5342 7.1059C15.5342 6.6578 15.8927 6.29932 16.3408 6.29932H18.1929C18.641 6.29932 18.9995 6.6578 18.9995 7.1059V14.3651C18.9995 16.1575 20.2243 17.3226 22.0765 17.2927C23.6299 17.2629 24.8846 15.9484 24.8846 14.3651V7.1059C24.8846 6.6578 25.243 6.29932 25.6911 6.29932H27.5433C27.9914 6.29932 28.3499 6.6578 28.3499 7.1059V14.5444C28.3499 17.9798 25.8106 20.2502 21.9868 20.2502C18.0734 20.2502 15.5342 17.9798 15.5342 14.5444V7.1059Z" fill="white"/>
<path d="M32.3828 0.0260189C33.2491 0.145513 33.9362 0.832601 34.0557 1.69893C34.2648 3.1926 33.1894 4.26804 31.6957 4.05893C30.8294 3.93944 30.1423 3.25235 30.0228 2.38602C29.8137 0.892348 30.8891 -0.183095 32.3828 0.0260189ZM33.2192 6.29944C33.518 6.29944 33.757 6.53842 33.757 6.83716V19.4437C33.757 19.7425 33.518 19.9815 33.2192 19.9815H30.8294C30.5306 19.9815 30.2916 19.7425 30.2916 19.4437V6.83716C30.2916 6.53842 30.5306 6.29944 30.8294 6.29944H33.2192Z" fill="white"/>
<path d="M38.6861 0.205322C38.9251 0.205322 39.1342 0.414436 39.1342 0.653423V16.9046C39.1342 17.0539 39.2537 17.1734 39.403 17.1734H42.3904C42.6294 17.1734 42.8385 17.3825 42.8385 17.6215V19.5334C42.8385 19.7724 42.6294 19.9815 42.3904 19.9815H36.1468C35.878 19.9815 35.6987 19.7724 35.6987 19.5334V0.653423C35.6987 0.414436 35.9078 0.205322 36.1468 0.205322H38.6861Z" fill="white"/>
<path d="M56.0425 0.205322H58.3129C58.6415 0.205322 58.9104 0.474183 58.9104 0.802791V19.4139C58.9104 19.7425 58.6415 20.0114 58.3129 20.0114H56.162C55.8334 20.0114 55.5944 19.7724 55.5646 19.4438C55.5347 18.936 54.9671 18.697 54.5787 19.0256C53.6527 19.8322 52.4279 20.2803 50.9342 20.2803C47.2299 20.2803 44.3919 17.4722 44.3919 13.26C44.3919 8.95823 47.2299 6.09039 50.9342 6.09039C50.9342 6.09039 50.9342 6.09039 50.9641 6.09039H54.9073C55.236 6.09039 55.5048 5.82153 55.5048 5.49292V0.772917C55.4451 0.474183 55.7139 0.205322 56.0425 0.205322ZM55.4451 9.58558C55.4451 9.25697 55.1762 8.98811 54.8476 8.98811H51.6213C49.4106 9.01798 47.917 10.6909 47.917 13.1405C47.917 15.5901 49.4106 17.263 51.681 17.263C53.9215 17.263 55.4451 15.62 55.4451 13.1106V9.58558Z" fill="white"/>
<path d="M7.10988 6.32937H3.31596C3.13671 6.32937 2.98735 6.18001 2.98735 6.00077V0.53393C2.98735 0.354689 2.83798 0.205322 2.65874 0.205322H0.358488C0.209121 0.205322 0.0597534 0.324816 0.0597534 0.504056V0.53393V0.62355V13.3496C0.0597534 13.3795 0.0597534 13.3795 0.0597534 13.4094V20.0114V33.8727C0.0597534 34.022 0.179247 34.1714 0.358488 34.1714H2.62887C2.77823 34.1714 2.9276 34.0519 2.9276 33.8727V25.7172C2.9276 25.3587 3.22634 25.06 3.58482 25.06H5.58634C7.16963 25.06 8.24507 26.016 8.24507 27.5096V33.8727C8.24507 34.022 8.36456 34.1714 8.5438 34.1714H10.8142C10.9636 34.1714 11.1129 34.0519 11.1129 33.8727V27.0317C11.1129 24.3729 9.32051 22.6104 6.60203 22.6104H3.22634C3.07697 22.6104 2.9276 22.4909 2.9276 22.3117V18.7567C2.98735 18.5177 3.31596 18.4281 3.4952 18.6073C4.45115 19.623 5.79545 20.2205 7.55798 20.2205C11.2324 20.2205 14.1003 17.4124 14.1003 13.2003V13.0808C14.0106 9.31671 10.8739 6.32937 7.10988 6.32937ZM6.72153 17.2929C4.45115 17.2929 2.95748 15.6499 2.95748 13.1704V10.9598C2.95748 9.88431 3.8238 9.04785 4.86937 9.04785H6.72153C8.96203 9.04785 10.4856 10.7208 10.4856 13.2003C10.4856 15.62 8.96203 17.2929 6.72153 17.2929Z" fill="white"/>
<path d="M18.3722 22.6104C21.9868 22.6104 24.4365 24.9704 24.4365 28.4655C24.4365 31.9906 21.9868 34.3506 18.3722 34.3506C14.7276 34.3506 12.3079 31.9906 12.3079 28.4655C12.278 24.9704 14.7276 22.6104 18.3722 22.6104ZM18.3722 25.0301C16.4901 25.0301 15.2653 26.4043 15.2653 28.4655C15.2653 30.5268 16.52 31.901 18.3722 31.901C20.2243 31.901 21.4491 30.5268 21.4491 28.4655C21.4491 26.4043 20.2243 25.0301 18.3722 25.0301Z" fill="white"/>
<path d="M25.6314 23.4768C25.6314 23.1183 25.9301 22.8196 26.2886 22.8196H27.8122C28.1706 22.8196 28.4694 23.1183 28.4694 23.4768V29.4814C28.4694 30.975 29.4851 31.931 31.0086 31.9011C32.2932 31.8712 33.3388 30.7958 33.3388 29.4814V23.4768C33.3388 23.1183 33.6375 22.8196 33.996 22.8196H35.5195C35.878 22.8196 36.1767 23.1183 36.1767 23.4768V29.6307C36.1767 32.4687 34.0856 34.3507 30.8891 34.3507C27.6927 34.3507 25.6015 32.4687 25.6015 29.6307V23.4768H25.6314Z" fill="white"/>
<path d="M38.2679 31.662C38.3873 31.4529 38.6562 31.3633 38.8952 31.4828C39.8511 31.9607 40.8071 32.1101 41.763 32.1101C42.8086 32.1101 43.5256 31.662 43.5256 30.9749C43.5256 30.2878 42.719 29.8995 41.5838 29.6007L40.6278 29.3617C38.716 28.8539 37.4015 28.1071 37.4015 26.3445C37.4015 24.104 39.1641 22.6104 41.8527 22.6104C43.3463 22.6104 44.6309 22.8792 45.6765 23.4468C45.9154 23.5962 46.0051 23.8949 45.8557 24.1339L45.1686 25.2093C45.0491 25.4185 44.7803 25.4782 44.5711 25.3886C43.7646 25.0002 42.9281 24.8509 42.0618 24.8509C41.0461 24.8509 40.3291 25.2392 40.3291 25.8666C40.3291 26.5536 41.0461 26.8524 42.0319 27.1212L42.9878 27.3901C44.9296 27.8979 46.4532 28.7643 46.4532 30.7658C46.4532 32.9167 44.5711 34.3506 41.7332 34.3506C40.2096 34.3506 38.8056 33.9921 37.7899 33.2752C37.5808 33.1258 37.521 32.8271 37.6704 32.6179L38.2679 31.662Z" fill="white"/>
<path d="M58.9701 29.1525C58.9402 29.3617 58.7909 29.511 58.5818 29.511H51.2329C50.964 29.511 50.7848 29.75 50.8445 29.989C51.1433 31.3034 51.9797 32.11 53.4734 32.11C54.6385 32.11 55.5645 31.5723 56.2516 30.7657H58.283C58.5519 30.7657 58.761 31.0346 58.6714 31.3034C57.5661 34.4999 53.5033 34.3804 53.5033 34.3804C50.038 34.3804 47.7078 32.0801 47.7078 28.5849C47.7078 25.0001 49.9483 22.6401 53.3539 22.6401C56.7296 22.6401 59 24.9105 59 28.346C59 28.5849 59 28.8837 58.9701 29.1525ZM55.5347 27.5693C55.8035 27.5693 55.9828 27.3303 55.923 27.0913C55.6243 25.6574 54.7281 24.8508 53.3539 24.8508C51.9797 24.8508 51.1433 25.6574 50.8147 27.0614C50.7549 27.3004 50.964 27.5394 51.203 27.5394H55.5347V27.5693Z" fill="white"/>
</g>
</svg>
