<svg width="99" height="99" viewBox="0 0 99 99" fill="none" xmlns="http://www.w3.org/2000/svg">
<circle cx="49.5" cy="49.5" r="49.5" fill="#619DCF"/>
<path d="M39.0231 64.5483V60.3483L49.8231 50.1483C50.6764 49.375 51.3031 48.6817 51.7031 48.0683C52.1031 47.455 52.3698 46.895 52.5031 46.3883C52.6631 45.8817 52.7431 45.415 52.7431 44.9883C52.7431 43.8683 52.3564 43.015 51.5831 42.4283C50.8364 41.815 49.7298 41.5083 48.2631 41.5083C47.0898 41.5083 45.9964 41.735 44.9831 42.1883C43.9964 42.6417 43.1564 43.3483 42.4631 44.3083L37.7431 41.2683C38.8098 39.6683 40.3031 38.4017 42.2231 37.4683C44.1431 36.535 46.3564 36.0683 48.8631 36.0683C50.9431 36.0683 52.7564 36.415 54.3031 37.1083C55.8764 37.775 57.0898 38.7217 57.9431 39.9483C58.8231 41.175 59.2631 42.6417 59.2631 44.3483C59.2631 45.255 59.1431 46.1617 58.9031 47.0683C58.6898 47.9483 58.2364 48.8817 57.5431 49.8683C56.8764 50.855 55.8898 51.9617 54.5831 53.1883L45.6231 61.6283L44.3831 59.2683H60.1831V64.5483H39.0231Z" fill="white"/>
</svg>
