<svg width="99" height="99" viewBox="0 0 99 99" fill="none" xmlns="http://www.w3.org/2000/svg">
<circle cx="49.5" cy="49.5" r="49.5" fill="#619DCF"/>
<path d="M48.3041 65.0283C46.3574 65.0283 44.4241 64.775 42.5041 64.2683C40.5841 63.735 38.9574 62.9883 37.6241 62.0283L40.1441 57.0683C41.2107 57.8417 42.4507 58.455 43.8641 58.9083C45.2774 59.3617 46.7041 59.5883 48.1441 59.5883C49.7707 59.5883 51.0507 59.2683 51.9841 58.6283C52.9174 57.9883 53.3841 57.1083 53.3841 55.9883C53.3841 54.9217 52.9707 54.0817 52.1441 53.4683C51.3174 52.855 49.9841 52.5483 48.1441 52.5483H45.1841V48.2683L52.9841 39.4283L53.7041 41.7483H39.0241V36.5483H58.6241V40.7483L50.8641 49.5883L47.5841 47.7083H49.4641C52.9041 47.7083 55.5041 48.4817 57.2641 50.0283C59.0241 51.575 59.9041 53.5617 59.9041 55.9883C59.9041 57.5617 59.4907 59.0417 58.6641 60.4283C57.8374 61.7883 56.5707 62.895 54.8641 63.7483C53.1574 64.6017 50.9707 65.0283 48.3041 65.0283Z" fill="white"/>
</svg>
